<svg width="32" height="32" viewBox="0 0 32 32" xmlns="http://www.w3.org/2000/svg">
  <defs>
    <linearGradient id="jiraBlue32" x1="0%" y1="0%" x2="100%" y2="100%">
      <stop offset="0%" style="stop-color:#0052CC;stop-opacity:1" />
      <stop offset="100%" style="stop-color:#2684FF;stop-opacity:1" />
    </linearGradient>
    <linearGradient id="jiraAccent32" x1="0%" y1="0%" x2="100%" y2="100%">
      <stop offset="0%" style="stop-color:#FF5630;stop-opacity:1" />
      <stop offset="100%" style="stop-color:#FF8F73;stop-opacity:1" />
    </linearGradient>
  </defs>
  
  <!-- Background circle -->
  <circle cx="16" cy="16" r="15" fill="url(#jiraBlue32)" stroke="#0052CC" stroke-width="1"/>
  
  <!-- Ticket representation -->
  <rect x="6" y="7" width="20" height="4" rx="2" ry="2" fill="white" opacity="0.9"/>
  <rect x="6" y="12" width="15" height="3" rx="1.5" ry="1.5" fill="white" opacity="0.8"/>
  <rect x="6" y="16" width="17" height="3" rx="1.5" ry="1.5" fill="white" opacity="0.7"/>
  
  <!-- SDK gear indicator -->
  <g transform="translate(23, 23)">
    <circle cx="0" cy="0" r="4" fill="url(#jiraAccent32)"/>
    <circle cx="0" cy="0" r="2" fill="white"/>
    <!-- Simplified gear teeth -->
    <rect x="-1" y="-5" width="2" height="2" fill="url(#jiraAccent32)"/>
    <rect x="-1" y="3" width="2" height="2" fill="url(#jiraAccent32)"/>
    <rect x="-5" y="-1" width="2" height="2" fill="url(#jiraAccent32)"/>
    <rect x="3" y="-1" width="2" height="2" fill="url(#jiraAccent32)"/>
  </g>
  
  <!-- REST API dots -->
  <circle cx="8" cy="22" r="1" fill="white"/>
  <circle cx="11" cy="22" r="1" fill="white"/>
  <circle cx="14" cy="22" r="1" fill="white"/>
  <line x1="9" y1="22" x2="10" y2="22" stroke="white" stroke-width="1"/>
  <line x1="12" y1="22" x2="13" y2="22" stroke="white" stroke-width="1"/>
</svg>